# Blender v2.76 (sub 0) OBJ File: ''
# www.blender.org
mtllib coin.mtl
o Cylinder
v 0.707107 -0.100000 -0.707107
v 0.707107 0.100000 -0.707107
v 0.831470 -0.100000 -0.555570
v 0.831470 0.100000 -0.555570
v 0.923880 -0.100000 -0.382683
v 0.923880 0.100000 -0.382683
v 0.980785 -0.100000 -0.195090
v 0.980785 0.100000 -0.195090
v 1.000000 -0.100000 -0.000000
v 1.000000 0.100000 -0.000000
v 0.980785 -0.100000 0.195090
v 0.980785 0.100000 0.195090
v 0.923880 -0.100000 0.382683
v 0.923880 0.100000 0.382683
v 0.831470 -0.100000 0.555570
v 0.831470 0.100000 0.555570
v 0.707107 -0.100000 0.707107
v 0.707107 0.100000 0.707107
v 0.555570 -0.100000 0.831470
v 0.555570 0.100000 0.831470
v 0.382684 -0.100000 0.923880
v 0.382684 0.100000 0.923880
v 0.195090 -0.100000 0.980785
v 0.195090 0.100000 0.980785
v 0.000000 -0.100000 1.000000
v 0.000000 0.100000 1.000000
v -0.195090 -0.100000 0.980785
v -0.195090 0.100000 0.980785
v -0.382684 -0.100000 0.923880
v -0.382684 0.100000 0.923880
v -0.555570 -0.100000 0.831470
v -0.555570 0.100000 0.831470
v -0.707107 -0.100000 0.707107
v -0.707107 0.100000 0.707107
v -0.831470 -0.100000 0.555570
v -0.831470 0.100000 0.555570
v -0.923880 -0.100000 0.382683
v -0.923880 0.100000 0.382683
v -0.980785 -0.100000 0.195090
v -0.980785 0.100000 0.195090
v -1.000000 -0.100000 -0.000001
v -1.000000 0.100000 -0.000001
v -0.980785 -0.100000 -0.195091
v -0.980785 0.100000 -0.195091
v -0.923879 -0.100000 -0.382684
v -0.923879 0.100000 -0.382684
v -0.831469 -0.100000 -0.555571
v -0.831469 0.100000 -0.555571
v -0.707106 -0.100000 -0.707107
v -0.707106 0.100000 -0.707107
v -0.555569 -0.100000 -0.831470
v -0.555569 0.100000 -0.831470
v -0.382682 -0.100000 -0.923880
v -0.382682 0.100000 -0.923880
v -0.195089 -0.100000 -0.980785
v -0.195089 0.100000 -0.980785
v 0.000001 -0.100000 -1.000000
v 0.000001 0.100000 -1.000000
v 0.195092 -0.100000 -0.980785
v 0.195092 0.100000 -0.980785
v 0.382685 -0.100000 -0.923879
v 0.382685 0.100000 -0.923879
v 0.555571 -0.100000 -0.831469
v 0.555571 0.100000 -0.831469
vt 0.624970 0.018086
vt 0.624968 0.000123
vt 0.656210 0.000123
vt 0.656212 0.018086
vt 0.687453 0.000123
vt 0.687455 0.018086
vt 0.718695 0.000122
vt 0.718697 0.018085
vt 0.749938 0.000122
vt 0.749940 0.018085
vt 0.781180 0.000122
vt 0.781182 0.018085
vt 0.812422 0.000122
vt 0.812425 0.018085
vt 0.843665 0.000121
vt 0.843667 0.018085
vt 0.874907 0.000121
vt 0.874910 0.018084
vt 0.906150 0.000121
vt 0.906152 0.018084
vt 0.937392 0.000121
vt 0.937395 0.018084
vt 0.968634 0.000120
vt 0.968638 0.018083
vt 0.999877 0.000120
vt 0.999880 0.018083
vt 0.000120 0.018087
vt 0.000120 0.000125
vt 0.031363 0.000125
vt 0.031362 0.018087
vt 0.062605 0.000125
vt 0.062605 0.018087
vt 0.093847 0.000125
vt 0.093847 0.018087
vt 0.125090 0.000125
vt 0.125090 0.018087
vt 0.156332 0.000125
vt 0.156332 0.018087
vt 0.187575 0.000125
vt 0.187575 0.018087
vt 0.218817 0.000125
vt 0.218817 0.018087
vt 0.250059 0.000125
vt 0.250060 0.018087
vt 0.281302 0.000125
vt 0.281302 0.018087
vt 0.312544 0.000125
vt 0.312545 0.018087
vt 0.343787 0.000124
vt 0.343787 0.018087
vt 0.375029 0.000124
vt 0.375030 0.018087
vt 0.406271 0.000124
vt 0.406272 0.018087
vt 0.437514 0.000124
vt 0.437515 0.018087
vt 0.468756 0.000124
vt 0.468757 0.018087
vt 0.499999 0.000124
vt 0.500000 0.018087
vt 0.531241 0.000124
vt 0.531242 0.018086
vt 0.562483 0.000123
vt 0.562485 0.018086
vt 0.905127 0.772342
vt 0.844148 0.846557
vt 0.769862 0.907449
vt 0.685123 0.952679
vt 0.593190 0.980509
vt 0.497592 0.989868
vt 0.402005 0.980397
vt 0.310102 0.952460
vt 0.225417 0.907131
vt 0.151201 0.846152
vt 0.090309 0.771865
vt 0.045079 0.687127
vt 0.017249 0.595193
vt 0.007890 0.499595
vt 0.017361 0.404008
vt 0.045298 0.312106
vt 0.090627 0.227421
vt 0.151607 0.153205
vt 0.225893 0.092313
vt 0.310631 0.047083
vt 0.402566 0.019253
vt 0.498163 0.009894
vt 0.593749 0.019365
vt 0.685651 0.047301
vt 0.770336 0.092630
vt 0.844551 0.153609
vt 0.905444 0.227896
vt 0.950675 0.312635
vt 0.978505 0.404570
vt 0.987864 0.500168
vt 0.978393 0.595754
vt 0.950456 0.687656
vt 0.593727 0.018086
vt 0.593726 0.000123
vt 0.153796 0.846926
vt 0.092874 0.773407
vt 0.047465 0.689413
vt 0.019315 0.598176
vt 0.009506 0.503199
vt 0.018414 0.408134
vt 0.045697 0.316633
vt 0.090307 0.232213
vt 0.150529 0.158118
vt 0.224049 0.097195
vt 0.308042 0.051787
vt 0.399280 0.023637
vt 0.494257 0.013828
vt 0.589322 0.022736
vt 0.680821 0.050019
vt 0.765241 0.094630
vt 0.839336 0.154852
vt 0.900259 0.228374
vt 0.945668 0.312368
vt 0.973817 0.403606
vt 0.983626 0.498582
vt 0.974717 0.593648
vt 0.947433 0.685149
vt 0.902823 0.769568
vt 0.842600 0.843663
vt 0.769080 0.904584
vt 0.685088 0.949992
vt 0.593852 0.978141
vt 0.498876 0.987950
vt 0.403811 0.979042
vt 0.312311 0.951758
vt 0.227891 0.907148
vn 0.773000 0.000000 -0.634400
vn 0.881900 0.000000 -0.471400
vn 0.956900 0.000000 -0.290300
vn 0.995200 0.000000 -0.098000
vn 0.995200 0.000000 0.098000
vn 0.956900 0.000000 0.290300
vn 0.881900 0.000000 0.471400
vn 0.773000 0.000000 0.634400
vn 0.634400 0.000000 0.773000
vn 0.471400 0.000000 0.881900
vn 0.290300 0.000000 0.956900
vn 0.098000 0.000000 0.995200
vn -0.098000 0.000000 0.995200
vn -0.290300 0.000000 0.956900
vn -0.471400 0.000000 0.881900
vn -0.634400 0.000000 0.773000
vn -0.773000 0.000000 0.634400
vn -0.881900 0.000000 0.471400
vn -0.956900 0.000000 0.290300
vn -0.995200 0.000000 0.098000
vn -0.995200 0.000000 -0.098000
vn -0.956900 0.000000 -0.290300
vn -0.881900 0.000000 -0.471400
vn -0.773000 0.000000 -0.634400
vn -0.634400 0.000000 -0.773000
vn -0.471400 0.000000 -0.881900
vn -0.290300 0.000000 -0.956900
vn -0.098000 0.000000 -0.995200
vn 0.098000 0.000000 -0.995200
vn 0.290300 0.000000 -0.956900
vn 0.000000 1.000000 -0.000000
vn 0.634400 0.000000 -0.773000
vn 0.471400 0.000000 -0.881900
vn 0.000000 -1.000000 -0.000000
usemtl None
s off
f 1/1/1 2/2/1 4/3/1 3/4/1
f 3/4/2 4/3/2 6/5/2 5/6/2
f 5/6/3 6/5/3 8/7/3 7/8/3
f 7/8/4 8/7/4 10/9/4 9/10/4
f 9/10/5 10/9/5 12/11/5 11/12/5
f 11/12/6 12/11/6 14/13/6 13/14/6
f 13/14/7 14/13/7 16/15/7 15/16/7
f 15/16/8 16/15/8 18/17/8 17/18/8
f 17/18/9 18/17/9 20/19/9 19/20/9
f 19/20/10 20/19/10 22/21/10 21/22/10
f 21/22/11 22/21/11 24/23/11 23/24/11
f 23/24/12 24/23/12 26/25/12 25/26/12
f 25/27/13 26/28/13 28/29/13 27/30/13
f 27/30/14 28/29/14 30/31/14 29/32/14
f 29/32/15 30/31/15 32/33/15 31/34/15
f 31/34/16 32/33/16 34/35/16 33/36/16
f 33/36/17 34/35/17 36/37/17 35/38/17
f 35/38/18 36/37/18 38/39/18 37/40/18
f 37/40/19 38/39/19 40/41/19 39/42/19
f 39/42/20 40/41/20 42/43/20 41/44/20
f 41/44/21 42/43/21 44/45/21 43/46/21
f 43/46/22 44/45/22 46/47/22 45/48/22
f 45/48/23 46/47/23 48/49/23 47/50/23
f 47/50/24 48/49/24 50/51/24 49/52/24
f 49/52/25 50/51/25 52/53/25 51/54/25
f 51/54/26 52/53/26 54/55/26 53/56/26
f 53/56/27 54/55/27 56/57/27 55/58/27
f 55/58/28 56/57/28 58/59/28 57/60/28
f 57/60/29 58/59/29 60/61/29 59/62/29
f 59/62/30 60/61/30 62/63/30 61/64/30
f 4/65/31 2/66/31 64/67/31 62/68/31 60/69/31 58/70/31 56/71/31 54/72/31 52/73/31 50/74/31 48/75/31 46/76/31 44/77/31 42/78/31 40/79/31 38/80/31 36/81/31 34/82/31 32/83/31 30/84/31 28/85/31 26/86/31 24/87/31 22/88/31 20/89/31 18/90/31 16/91/31 14/92/31 12/93/31 10/94/31 8/95/31 6/96/31
f 63/97/32 64/98/32 2/2/32 1/1/32
f 61/64/33 62/63/33 64/98/33 63/97/33
f 1/99/34 3/100/34 5/101/34 7/102/34 9/103/34 11/104/34 13/105/34 15/106/34 17/107/34 19/108/34 21/109/34 23/110/34 25/111/34 27/112/34 29/113/34 31/114/34 33/115/34 35/116/34 37/117/34 39/118/34 41/119/34 43/120/34 45/121/34 47/122/34 49/123/34 51/124/34 53/125/34 55/126/34 57/127/34 59/128/34 61/129/34 63/130/34
